<?xml version="1.0" standalone="no"?>
<!DOCTYPE svg PUBLIC "-//W3C//DTD SVG 20010904//EN"
 "http://www.w3.org/TR/2001/REC-SVG-20010904/DTD/svg10.dtd">
<svg version="1.0" xmlns="http://www.w3.org/2000/svg"
 width="632.000000pt" height="259.000000pt" viewBox="0 0 632.000000 259.000000"
 preserveAspectRatio="xMidYMid meet">

<g transform="translate(0.000000,259.000000) scale(0.100000,-0.100000)"
fill="#000000" stroke="none">
<path d="M3304 2492 c-61 -172 -82 -195 -230 -247 -57 -21 -104 -41 -104 -45
0 -5 21 -16 48 -26 155 -57 193 -77 217 -113 19 -31 71 -154 90 -215 5 -17 8
-18 19 -5 8 8 22 39 31 69 33 101 62 157 96 182 19 14 80 43 137 64 119 43
119 49 7 83 -142 44 -191 93 -240 242 -15 43 -30 81 -35 84 -4 3 -20 -30 -36
-73z"/>
<path d="M2610 2115 c-253 -68 -435 -145 -542 -230 -72 -57 -75 -79 -16 -129
55 -48 136 -77 228 -82 l75 -5 -47 26 c-27 14 -48 32 -48 39 0 9 -8 13 -22 10
-13 -2 2 8 32 22 85 40 227 73 440 99 243 31 250 33 239 62 -4 12 -24 33 -43
45 -19 13 -54 53 -78 90 -34 53 -75 93 -91 87 -1 0 -58 -16 -127 -34z"/>
<path d="M3912 2140 c-12 -5 -34 -31 -50 -57 -27 -47 -82 -109 -114 -128 -9
-5 -18 -19 -20 -30 -4 -24 44 -36 272 -65 91 -12 197 -28 235 -37 94 -21 236
-76 210 -81 -11 -2 -28 -11 -38 -20 -10 -9 -34 -23 -55 -33 l-37 -17 55 -1
c133 -2 300 83 300 153 0 22 -119 108 -216 155 -91 44 -273 108 -404 141 -47
11 -92 23 -100 25 -8 2 -25 0 -38 -5z"/>
<path d="M5523 1706 c28 -27 50 -59 56 -82 6 -22 11 -128 11 -241 0 -112 2
-203 5 -203 3 0 29 19 58 43 30 24 79 58 109 76 l56 32 4 125 c4 160 1 157
153 152 90 -3 118 -8 153 -26 43 -23 89 -77 112 -132 38 -91 38 51 0 174 l-21
66 -127 0 c-180 0 -382 16 -496 40 -54 11 -103 20 -108 20 -5 0 10 -20 35 -44z"/>
<path d="M75 1716 c-20 -15 -19 -16 11 -41 18 -13 40 -44 50 -67 17 -40 19
-80 22 -505 3 -390 5 -463 17 -463 25 0 123 40 150 62 45 35 65 92 65 189 l0
86 51 64 c28 35 52 65 54 67 1 1 48 -80 104 -182 110 -201 146 -243 231 -271
56 -19 245 -18 245 1 0 6 -22 28 -50 49 -66 49 -86 73 -149 180 -87 146 -226
404 -226 418 1 6 51 84 113 172 108 154 114 161 175 191 59 29 62 32 47 48
-23 23 -341 24 -371 1 -18 -15 -18 -15 0 -26 33 -20 56 -49 56 -70 0 -12 -63
-111 -140 -222 l-140 -200 -2 264 -3 264 -145 3 c-117 2 -149 0 -165 -12z"/>
<path d="M3003 1722 c-15 -9 -44 -164 -33 -176 5 -5 23 2 42 15 31 23 43 24
206 27 94 2 172 1 172 -2 0 -3 -103 -197 -230 -431 -126 -234 -230 -431 -230
-439 0 -8 7 -17 16 -20 23 -9 757 -7 771 2 6 4 21 45 33 91 24 96 18 116 -26
82 -25 -20 -38 -21 -225 -21 -110 0 -199 1 -199 3 0 2 99 190 220 417 121 228
220 422 220 431 0 9 -7 20 -16 23 -23 9 -707 7 -721 -2z"/>
<path d="M1130 1646 c0 -2 18 -21 39 -43 22 -22 44 -56 50 -78 6 -23 11 -122
11 -228 l0 -187 53 42 c28 24 75 56 102 72 28 16 52 31 55 33 3 3 7 59 10 126
l5 122 48 9 c31 6 79 6 133 -1 100 -12 139 -37 185 -119 17 -30 33 -54 36 -54
10 0 -6 144 -21 196 l-16 50 -242 12 c-165 8 -273 18 -338 32 -100 21 -110 22
-110 16z"/>
<path d="M3764 1609 c-3 -6 7 -25 24 -42 17 -18 36 -45 41 -60 7 -18 11 -168
11 -418 0 -336 2 -390 15 -395 24 -10 113 28 144 60 43 46 51 85 51 237 l0
139 155 0 155 0 2 -217 c3 -252 0 -245 98 -196 45 23 59 37 80 78 l25 50 0
385 0 385 -88 3 c-57 2 -94 -1 -103 -9 -11 -9 -14 -48 -14 -180 l0 -169 -155
0 -155 0 0 168 c0 117 -4 172 -12 180 -16 16 -264 17 -274 1z"/>
<path d="M4860 1611 c-78 -6 -80 -10 -18 -30 21 -7 47 -24 58 -38 19 -25 20
-40 20 -365 l0 -339 -25 -23 c-13 -12 -42 -28 -65 -35 -83 -25 -40 -31 210
-31 138 0 250 4 250 9 0 4 -21 16 -46 26 -88 34 -84 14 -84 396 0 386 -3 372
93 406 l52 18 -60 6 c-71 8 -279 8 -385 0z"/>
<path d="M1960 1581 c0 -6 13 -17 28 -25 50 -26 52 -40 52 -408 l0 -341 -40
-37 c-22 -20 -37 -40 -33 -43 8 -9 358 -9 366 0 4 3 -11 23 -33 43 l-40 37 0
256 c0 142 2 257 4 257 2 0 113 -140 247 -311 134 -171 257 -321 273 -334 30
-22 96 -49 103 -42 2 2 -8 29 -22 60 -16 33 -29 88 -35 139 -13 109 -13 613 0
658 5 20 26 49 47 67 l38 33 -192 0 c-106 0 -193 -4 -193 -9 0 -5 12 -16 26
-26 47 -31 54 -66 54 -286 0 -117 -4 -199 -9 -197 -5 2 -99 118 -208 258
l-199 255 -117 3 c-74 2 -117 -1 -117 -7z"/>
<path d="M5974 1340 c-160 -36 -293 -108 -399 -216 -54 -55 -141 -182 -131
-192 3 -2 35 14 73 36 l68 40 3 -43 c4 -62 -30 -134 -90 -191 -27 -25 -47 -48
-45 -50 2 -2 37 3 78 13 58 13 144 18 399 22 l325 6 12 26 c24 51 44 149 41
206 l-3 58 -31 -55 c-39 -69 -100 -125 -151 -139 -21 -6 -91 -11 -155 -11
-109 0 -118 1 -132 22 -22 31 -23 200 -2 221 18 18 184 44 339 53 64 4 117 10
117 15 0 12 -60 59 -75 59 -24 0 -56 52 -54 85 2 17 0 36 -5 43 -10 17 -86 14
-182 -8z"/>
<path d="M4757 1303 c-4 -3 -7 -24 -7 -45 0 -40 -34 -88 -63 -88 -14 0 -63
-47 -56 -54 2 -2 64 -7 137 -11 l132 -8 0 100 0 101 -31 6 c-41 8 -104 8 -112
-1z"/>
<path d="M1610 1270 c-150 -32 -264 -87 -369 -177 -46 -39 -151 -182 -151
-204 0 -6 29 6 63 26 35 19 67 35 70 35 15 0 5 -77 -14 -120 -11 -25 -41 -67
-67 -94 l-47 -48 45 7 c25 4 65 12 90 17 25 5 176 11 336 15 l291 5 17 54 c20
62 35 179 26 194 -4 6 -22 -15 -41 -47 -20 -33 -52 -70 -77 -88 -42 -29 -48
-30 -173 -33 -91 -3 -134 0 -145 8 -20 17 -21 215 0 223 26 10 221 36 319 42
53 4 97 10 97 14 0 12 -42 46 -73 59 -31 13 -51 55 -42 89 4 19 0 25 -20 33
-33 12 -32 12 -135 -10z"/>
<path d="M5180 1105 l0 -75 113 -57 c61 -32 116 -60 121 -62 5 -2 -4 21 -20
50 -28 52 -183 219 -204 219 -6 0 -10 -30 -10 -75z"/>
<path d="M1230 594 c0 -4 8 -13 18 -20 15 -11 17 -34 20 -180 3 -156 2 -169
-17 -195 -12 -16 -21 -31 -21 -34 0 -7 165 -7 173 1 3 3 -3 14 -14 25 -17 17
-19 35 -19 191 0 163 1 173 22 195 l21 23 -91 0 c-51 0 -92 -3 -92 -6z"/>
<path d="M1779 574 c20 -25 21 -40 21 -215 0 -195 2 -203 40 -179 12 7 16 40
20 152 l5 143 53 -135 c60 -151 66 -160 96 -160 18 0 28 20 73 143 l52 142 0
-127 c1 -114 3 -130 21 -148 11 -11 33 -20 50 -20 l30 0 0 215 0 216 -57 -3
-56 -3 -47 -122 c-25 -68 -49 -125 -52 -128 -3 -3 -29 53 -59 125 l-53 130
-79 0 -78 0 20 -26z"/>
<path d="M2649 574 c20 -25 21 -40 21 -220 0 -214 1 -217 59 -168 28 23 31 31
31 85 l0 59 53 0 c60 0 127 27 151 61 10 14 16 44 16 75 0 42 -5 59 -26 83
-34 41 -77 51 -212 51 l-113 0 20 -26z m216 -49 c30 -29 33 -83 7 -115 -14
-17 -30 -23 -63 -24 l-44 -1 -3 83 -3 82 41 0 c30 0 47 -6 65 -25z"/>
<path d="M3358 577 c21 -22 22 -32 22 -215 l0 -192 139 0 138 0 6 37 c4 20 5
38 3 40 -2 2 -15 -1 -30 -7 -15 -5 -56 -10 -92 -10 l-64 0 0 70 0 70 80 0 c79
0 80 0 80 25 0 25 -1 25 -80 25 l-80 0 0 65 0 65 78 0 c47 0 83 -5 90 -12 17
-17 23 -6 16 30 l-6 32 -161 0 -160 0 21 -23z"/>
<path d="M4046 579 c17 -19 19 -41 22 -216 l3 -195 27 6 c40 10 62 42 62 90 1
36 26 86 44 86 3 0 24 -34 47 -75 50 -92 67 -105 139 -105 l55 0 -32 26 c-18
14 -59 73 -93 131 l-59 106 36 51 c19 28 51 66 71 84 l35 32 -77 0 -76 0 14
-22 c14 -22 11 -28 -42 -103 l-57 -80 -3 103 -3 102 -66 0 -66 0 19 -21z"/>
<path d="M4786 588 c-15 -48 -14 -59 2 -52 29 12 162 17 162 6 0 -6 -43 -89
-95 -185 -52 -96 -95 -178 -95 -181 0 -3 76 -6 169 -6 l169 0 6 31 c9 46 8 53
-8 40 -9 -8 -45 -11 -98 -9 l-85 3 93 175 c52 96 94 178 94 183 0 4 -70 7
-155 7 -116 0 -157 -3 -159 -12z"/>
</g>
</svg>
